<svg width="3005" height="898" xmlns="http://www.w3.org/2000/svg" xmlns:xlink="http://www.w3.org/1999/xlink">
 <defs>
  <linearGradient x1="0.613" y1="0.956" x2="0.26" y2="0.278" id="a">
   <stop stop-color="#00A0FF" offset="0%"/>
   <stop stop-color="#00A1FF" offset=".657%"/>
   <stop stop-color="#00BEFF" offset="26.01%"/>
   <stop stop-color="#00D2FF" offset="51.22%"/>
   <stop stop-color="#00DFFF" offset="76.04%"/>
   <stop stop-color="#00E3FF" offset="100%"/>
  </linearGradient>
  <linearGradient x1="1.076" y1="0.509" x2="-1.305" y2="0.509" id="b">
   <stop stop-color="#FFE000" offset="0%"/>
   <stop stop-color="#FFBD00" offset="40.87%"/>
   <stop stop-color="orange" offset="77.54%"/>
   <stop stop-color="#FF9C00" offset="100%"/>
  </linearGradient>
  <linearGradient x1="0.867" y1="0.691" x2="-0.505" y2="-0.361" id="c">
   <stop stop-color="#FF3A44" offset="0%"/>
   <stop stop-color="#C31162" offset="100%"/>
  </linearGradient>
  <linearGradient x1="-0.193" y1="1.119" x2="0.418" y2="0.649" id="d">
   <stop stop-color="#32A071" offset="0%"/>
   <stop stop-color="#2DA771" offset="6.85%"/>
   <stop stop-color="#15CF74" offset="47.62%"/>
   <stop stop-color="#06E775" offset="80.09%"/>
   <stop stop-color="#00F076" offset="100%"/>
  </linearGradient>
  <linearGradient x1="0.862" y1="0.695" x2="-0.501" y2="-0.021" id="e">
   <stop stop-color="#CC2E36" offset="0%"/>
   <stop stop-color="#9C0E4E" offset="100%"/>
  </linearGradient>
  <linearGradient x1="3.073" y1="15.318" x2="-0.663" y2="4.496" id="f">
   <stop stop-color="#008DE0" offset="0%"/>
   <stop stop-color="#008DE0" offset=".657%"/>
   <stop stop-color="#00A7E0" offset="26.01%"/>
   <stop stop-color="#00B8E0" offset="51.22%"/>
   <stop stop-color="#00C4E0" offset="76.04%"/>
   <stop stop-color="#00C7E0" offset="100%"/>
  </linearGradient>
  <linearGradient x1="1.128" y1="1" x2="-2.882" y2="1" id="g">
   <stop stop-color="#E0C500" offset="0%"/>
   <stop stop-color="#E0A600" offset="40.87%"/>
   <stop stop-color="#E09100" offset="77.54%"/>
   <stop stop-color="#E08900" offset="100%"/>
  </linearGradient>
  <linearGradient x1="1.128" y1="0" x2="-2.882" y2="0" id="h">
   <stop stop-color="#FFE840" offset="0%"/>
   <stop stop-color="#FFCE40" offset="40.87%"/>
   <stop stop-color="#FFBC40" offset="77.54%"/>
   <stop stop-color="#FFB540" offset="100%"/>
  </linearGradient>
  <linearGradient x1="3.061" y1="0.234" x2="-0.657" y2="-10.098" id="i">
   <stop stop-color="#40B8FF" offset="0%"/>
   <stop stop-color="#40B9FF" offset=".657%"/>
   <stop stop-color="#40CEFF" offset="26.01%"/>
   <stop stop-color="#40DDFF" offset="51.22%"/>
   <stop stop-color="#40E7FF" offset="76.04%"/>
   <stop stop-color="#40EAFF" offset="100%"/>
  </linearGradient>
  <linearGradient x1="-0.188" y1="0.856" x2="0.421" y2="0.537" id="j">
   <stop stop-color="#65B895" offset="0%"/>
   <stop stop-color="#62BD95" offset="6.85%"/>
   <stop stop-color="#50DB97" offset="47.62%"/>
   <stop stop-color="#44ED98" offset="80.09%"/>
   <stop stop-color="#40F498" offset="100%"/>
  </linearGradient>
  <linearGradient xlink:href="#j" id="svg_1" x1="-0.18807" y1="0.14365" x2="0.42096" y2="0.4633"/>
  <linearGradient xlink:href="#i" id="svg_2" x1="3.0608" y1="0.76616" x2="-0.6573" y2="11.09839"/>
  <linearGradient xlink:href="#h" id="svg_3" x1="1.12785" y1="1.00023" x2="-2.88198" y2="1.00023"/>
  <linearGradient xlink:href="#g" id="svg_4" x1="1.12786" y1="-0.00022" x2="-2.88225" y2="-0.00022"/>
  <linearGradient xlink:href="#f" id="svg_5" x1="3.07314" y1="-14.31773" x2="-0.66292" y2="-3.49571"/>
  <linearGradient xlink:href="#e" id="svg_6" x1="0.86247" y1="0.30497" x2="-0.50142" y2="1.02079"/>
  <linearGradient xlink:href="#d" id="svg_7" x1="-0.19329" y1="-0.11894" x2="0.41841" y2="0.35065"/>
  <linearGradient xlink:href="#c" id="svg_8" x1="0.86725" y1="0.30893" x2="-0.5048" y2="1.36058"/>
  <linearGradient xlink:href="#b" id="svg_9" x1="1.0759" y1="0.49132" x2="-1.30464" y2="0.49132"/>
  <linearGradient xlink:href="#a" id="svg_10" x1="0.61256" y1="0.04433" x2="0.26039" y2="0.72164"/>
 </defs>
 <g>
  <title>Layer 1</title>
  <g id="svg_11" fill="none">
   <path id="svg_12" d="m2887.9209,890.02802l-2776.8469,0c-61.09,0 -111.074,-50.06403 -111.074,-111.25299l0,-667.52103c0,-61.19 49.983,-111.254 111.074,-111.254l2776.84592,0c61.09009,0 111.07397,50.064 111.07397,111.254l0,667.52005c0,61.19 -49.98291,111.25397 -111.07397,111.25397" fill="#000"/>
   <path id="svg_13" d="m2887.9209,0l-2776.8469,0c-61.09,0 -111.074,50.064 -111.074,111.254l0,667.52005c0,61.19 49.983,111.25397 111.074,111.25397l2776.84592,0c61.09009,0 111.07397,-50.06396 111.07397,-111.25299l0,-667.52103c0.00122,-61.19 -49.98193,-111.254 -111.07397,-111.254m0,17.8c51.44995,0 93.302,41.93 93.302,93.454l0,667.52005c0,51.534 -41.85303,93.46295 -93.302,93.46295l-2776.84592,0c-51.44,0 -93.302,-41.92999 -93.302,-93.46198l0,-667.52103c0,-51.524 41.861,-93.45301 93.302,-93.45301l2776.84592,0" fill="#A6A6A6"/>
   <path id="svg_14" d="m1053.39001,227.923c0,18.642 -5.51196,33.487 -16.55005,44.561c-12.53894,13.168 -28.87994,19.75699 -48.96893,19.75699c-19.23804,0 -35.59503,-6.67499 -49.04602,-20.04401c-13.47498,-13.35898 -20.20001,-29.92499 -20.20001,-49.68999c0,-19.77399 6.72504,-36.33 20.20001,-49.7c13.45099,-13.358 29.80798,-20.043 49.04602,-20.043c9.54596,0 18.685,1.87 27.362,5.599c8.677,3.73801 15.63696,8.7 20.84399,14.914l-11.71606,11.74199c-8.82397,-10.56 -20.97296,-15.836 -36.48993,-15.836c-14.03003,0 -26.16205,4.938 -36.401,14.82001c-10.24103,9.892 -15.36005,22.72 -15.36005,38.504c0,15.785 5.11902,28.612 15.36005,38.50502c10.23895,9.88199 22.37,14.819 36.401,14.819c14.88397,0 27.29297,-4.96402 37.22797,-14.90601c6.44897,-6.47701 10.17798,-15.48001 11.17603,-27.04102l-48.40503,0l0,-16.036l64.58997,0c0.62402,3.487 0.92798,6.83301 0.92798,10.075" fill="#FFF"/>
   <path id="svg_15" d="m1053.39001,227.923l-2.22205,0c-0.01794,18.217 -5.32996,32.366 -15.8999,42.98801l-0.02307,0.01797l-0.01001,0.01801c-12.13995,12.71402 -27.745,19.04202 -47.36499,19.069c-18.724,-0.02698 -34.39697,-6.42398 -47.48401,-19.392c-13.05798,-12.99399 -19.51495,-28.85699 -19.53998,-48.11699c0.02502,-19.269 6.48199,-35.123 19.53998,-48.108c13.08704,-12.97701 28.76001,-19.383 47.48401,-19.41c9.26001,0 18.07703,1.81 26.48499,5.416c8.41705,3.634 15.06604,8.396 20.02002,14.308l1.70105,-1.436l-1.57007,-1.573l-11.71594,11.75l1.56995,1.565l1.71106,-1.424c-9.23505,-11.08301 -22.19702,-16.67 -38.20001,-16.63701c-14.55103,-0.01799 -27.35101,5.19 -37.93903,15.44701c-10.69,10.29001 -16.06097,23.84 -16.04297,40.10201c-0.01801,16.263 5.35297,29.812 16.04297,40.10298c10.58801,10.25702 23.388,15.46402 37.93799,15.44601c15.37701,0.02701 28.48199,-5.198 38.79907,-15.55801c6.88989,-6.91998 10.7959,-16.50499 11.81995,-28.42299l0.20703,-2.416l-48.60406,0l0,-11.586l62.36798,0l0,-2.22499l-2.18799,0.39099c0.60803,3.37401 0.89502,6.58 0.89502,9.68401l4.44299,0c0,-3.382 -0.31299,-6.858 -0.96399,-10.47301l-0.32898,-1.827l-68.66699,0l0,20.48599l50.625,0l0,-2.22499l-2.21204,-0.19101c-0.97998,11.19601 -4.53894,19.62701 -10.53497,25.66c-9.54498,9.52499 -21.26001,14.22601 -35.65698,14.25299c-13.51001,-0.01797 -24.97302,-4.677 -34.85699,-14.194c-9.78802,-9.48299 -14.65698,-21.58998 -14.68201,-36.90498c0.02496,-15.315 4.89398,-27.422 14.68201,-36.905c9.88397,-9.517 21.34601,-14.17599 34.85699,-14.194c15.02197,0.03601 26.36499,5.007 34.79102,15.04599l1.56195,1.86l13.42407,-13.463l1.43994,-1.442l-1.31104,-1.558c-5.45801,-6.517 -12.72998,-11.69 -21.66797,-15.53c-8.95502,-3.85201 -18.40497,-5.782 -28.23798,-5.782c-19.74902,-0.017 -36.79199,6.936 -50.61603,20.696c-13.875,13.733 -20.86896,30.995 -20.84998,51.272c-0.01898,20.26799 6.97498,37.53999 20.85901,51.28099c13.815,13.75101 30.85797,20.69601 50.60699,20.67801c20.56702,0.01801 37.62799,-6.82401 50.57501,-20.444l-1.60706,-1.53799l1.57104,1.57401c11.50696,-11.51703 17.21594,-27.07501 17.20093,-46.13501l-2.22192,0m102.39502,-55.767l-60.70007,0l0,42.33l54.73999,0l0,16.04201l-54.73999,0l0,42.32999l60.70007,0l0,16.401l-77.81201,0l0,-133.504l77.81201,0l0,16.401" fill="#FFF"/>
   <path id="svg_16" d="m1155.78406,172.15601l0,-2.22499l-62.92102,0l0,46.77998l54.73901,0l0,11.58601l-54.73999,0.006l0,46.78l60.69995,0l0,11.95099l-73.36792,0l0,-129.054l73.36792,0l0,14.17601l2.22205,0l0,-2.22501l0,2.22501l2.22095,0l0,-18.62601l-82.25391,0l0,137.95398l82.25391,0l0,-20.85098l-60.69995,0l0,-37.88l54.73999,0l0,-20.492l-54.73999,0l0,-37.87999l60.69995,0l0,-2.22501l-2.22095,0m72.224,117.10399l-17.13806,0l0,-117.10498l-37.22791,0l0,-16.401l91.59399,0l0,16.401l-37.22803,0l0,117.103" fill="#FFF"/>
   <path id="svg_17" d="m1228.00806,289.26001l0,-2.22601l-14.91699,0l0,-117.103l-37.22705,0l0,-11.95l87.15002,0l0,11.95l-37.22693,0l0,119.328l2.22095,0l0,-2.22501l0,2.22501l2.22205,0l0,-114.87801l37.22693,0l0,-20.851l-96.03601,0l0,20.85001l37.22705,0l0,117.103l21.58203,0l0,-2.22501l-2.22205,0m103.49902,0.00201l0,-133.50601l17.12097,0l0,133.504l-17.12097,0" fill="#FFF"/>
   <path id="svg_18" d="m1331.50696,289.26001l2.22205,0l0,-131.28001l12.677,0l0,129.054l-14.89905,0l0,2.22501l2.22205,0l-2.22205,0l0,2.22501l19.34204,0l0,-137.95401l-21.56299,0l0,137.95398l2.22095,0l0,-2.22498m93.09302,0.00098l-17.13806,0l0,-117.10498l-37.22595,0l0,-16.401l91.59204,0l0,16.401l-37.22803,0l0,117.103" fill="#FFF"/>
   <path id="svg_19" d="m1424.59998,289.26001l0,-2.22601l-14.91699,0l0,-117.103l-37.22498,0l0,-11.95l87.14795,0l0,11.95l-37.22693,0l0,119.328l2.22095,0l0,-2.22501l0,2.22501l2.22205,0l0,-114.87801l37.22693,0l0,-20.851l-96.03394,0l0,20.85001l37.22498,0l0,117.103l21.58203,0l0,-2.22501l-2.22205,0m125.53198,-28.42801c9.86499,10.00302 21.93701,15 36.21204,15c14.27502,0 26.35303,-4.99698 36.203,-15c9.875,-10.00398 14.82202,-22.79199 14.82202,-38.323c0,-15.53 -4.94702,-28.31799 -14.82202,-38.32199c-9.84998,-10.004 -21.92798,-15.002 -36.203,-15.002c-14.27502,0 -26.34705,4.998 -36.21204,15.002c-9.84998,10.004 -14.79492,22.791 -14.79492,38.32199c0,15.53101 4.94495,28.319 14.79492,38.323zm85.08398,11.17603c-13.104,13.49698 -29.3999,20.23499 -48.87195,20.23499c-19.49097,0 -35.78003,-6.73801 -48.85498,-20.23499c-13.11304,-13.48203 -19.63806,-29.98502 -19.63806,-49.49901c0,-19.51401 6.52502,-36.02 19.63806,-49.49901c13.07593,-13.5 29.36401,-20.24399 48.85498,-20.24399c19.36902,0 35.62097,6.78 48.78601,20.33099c13.146,13.55 19.724,30.02 19.724,49.41199c0,19.51401 -6.56201,36.017 -19.63806,49.49899l0,0.00003z" fill="#FFF"/>
   <path id="svg_20" d="m1550.13196,260.82999l-1.57996,1.564c10.23193,10.40402 22.99695,15.689 37.79199,15.66202c14.78601,0.02698 27.56799,-5.258 37.78296,-15.66202c10.29895,-10.41399 15.479,-23.88599 15.46301,-39.88699c0.01501,-16 -5.16406,-29.47299 -15.46301,-39.88701c-10.21497,-10.40401 -22.99695,-15.688 -37.78296,-15.662c-14.79504,-0.026 -27.56006,5.258 -37.79199,15.662c-10.27405,10.414 -15.46399,23.88699 -15.43701,39.88701c-0.02698,16 5.16296,29.47301 15.43701,39.88699l1.57996,-1.564l1.57996,-1.565c-9.42395,-9.605 -14.13599,-21.687 -14.15393,-36.758c0.01794,-15.06999 4.72998,-27.15199 14.15295,-36.758c9.51001,-9.603 20.86902,-14.314 34.63306,-14.34c13.75293,0.026 25.13794,4.737 34.62402,14.34c9.44092,9.606 14.15295,21.688 14.16992,36.758c-0.01697,15.07001 -4.729,27.153 -14.16992,36.758c-9.48608,9.604 -20.87012,14.314 -34.62402,14.34c-13.76404,-0.026 -25.12305,-4.73599 -34.63306,-14.34l-1.57898,1.565zm85.08398,11.17599l-1.58801,-1.54599c-12.73792,13.07199 -28.31494,19.53 -47.28394,19.556c-18.97803,-0.02701 -34.55505,-6.48401 -47.26904,-19.556l-0.05994,-0.07001l0.05994,0.07001c-12.71094,-13.117 -18.98401,-28.935 -19.00195,-47.953c0.01794,-19.01801 6.29102,-34.836 19.00195,-47.952c12.71399,-13.073 28.29004,-19.539 47.26904,-19.565c18.84692,0.026 34.38794,6.519 47.19702,19.66c12.75598,13.177 19.06494,28.97 19.09192,47.85699c-0.02698,19.01799 -6.31799,34.836 -19.005,47.953l1.58801,1.54599l1.59802,1.54599c13.46594,-13.853 20.27698,-31.03699 20.26196,-51.04498c0.01599,-19.894 -6.82202,-37.043 -20.35095,-50.95799c-13.53601,-13.97 -30.49207,-21.03401 -50.38098,-21.01001c-19.99304,-0.024 -37.00098,7.007 -50.45203,20.923l0,-0.00999c-13.49304,13.86299 -20.28003,31.047 -20.26196,51.05499c-0.01807,20.008 6.76892,37.19202 20.26196,51.05402l0.05994,0.06299l-0.05994,-0.07199c13.45105,13.91599 30.45898,20.93198 50.45203,20.914c19.98401,0.01797 36.99194,-6.99802 50.46997,-20.914l-1.59802,-1.54602zm43.67407,17.254l0,-133.50598l20.84497,0l64.77795,103.85699l0.73804,0l-0.73804,-25.728l0,-78.129l17.13904,0l0,133.504l-17.87708,0l-67.77197,-108.89l-0.73804,0l0.73804,25.737l0,83.153l-17.11194,0" fill="#FFF"/>
   <path id="svg_21" d="m1678.89001,289.26001l2.22205,0l0,-131.28001l17.38989,0l64.77808,103.85701l4.25195,0l-0.79797,-27.98601l0,-75.87l12.69604,0l0,129.05299l-14.422,0l-67.77209,-108.89l-4.25195,0l0.797,27.99799l0,80.89201l-14.89001,0l0,2.22501l2.22107,0l-2.22107,0l0,2.22498l19.33301,0l0,-85.41299l-0.73694,-25.76199l-2.22205,0.06l0,2.22501l0.73804,0l0,-2.22501l-1.88403,1.183l68.42395,109.93199l21.33008,0l0,-137.95398l-21.58105,0l0,80.38l0.73706,25.76199l2.22192,-0.06l0,-2.22501l-0.73792,0l0,2.22501l1.88391,-1.181l-65.43201,-104.90102l-24.29492,0l0,137.95399l2.22192,0l0,-2.22498m696.66809,378.26199l41.4519,0l0,-278.16l-41.45288,0l0.00098,278.16zm373.36304,-177.96002l-47.51709,120.59601l-1.42188,0l-49.31714,-120.59702l-44.65186,0l73.95288,168.556l-42.16284,93.758l43.25195,0l113.96191,-262.314l-46.09595,0.00101zm-235.07715,146.367c-13.59497,0 -32.52197,-6.79797 -32.52197,-23.62402c0,-21.46997 23.59204,-29.69995 43.94019,-29.69995c18.23999,0 26.79199,3.93597 37.87695,9.31c-3.22095,25.76099 -25.37012,44.01398 -49.29517,44.01398zm4.99902,-152.453c-30.01294,0 -61.09082,13.245 -73.95288,42.59003l36.78687,15.38397c7.86401,-15.38397 22.50415,-20.40002 37.8772,-20.40002c21.43701,0 43.22998,12.89001 43.58496,35.79303l0,2.85999c-7.50903,-4.29498 -23.57007,-10.73499 -43.22998,-10.73499c-39.65308,0 -80.04004,21.82397 -80.04004,62.62299c0,37.21899 32.52295,61.198 68.95508,61.198c27.87988,0 43.22998,-12.52496 52.89282,-27.19501l1.42212,0l0,21.46802l40.00903,0l0,-106.64795c0,-49.37601 -36.78809,-76.93802 -84.30518,-76.93802l0,-0.00003zm-256.18091,39.94598l-58.95801,0l0,-95.34598l58.95801,0c30.98999,0 48.58398,25.70001 48.58398,47.672c0,21.556 -17.59497,47.67398 -48.58398,47.67398zm-1.06592,-134.05997l-99.323,0l0,278.16l41.42993,0l0,-105.38599l57.89307,0c45.93994,0 91.10181,-33.31598 91.10181,-86.388c0,-53.07001 -45.16187,-86.38599 -91.10181,-86.38599l0,-0.00003zm-541.61914,246.61795c-28.63696,0 -52.61292,-24.01495 -52.61292,-57c0,-33.33099 23.97595,-57.71198 52.61292,-57.71198c28.27307,0 50.46106,24.38 50.46106,57.71198c0,32.98505 -22.18799,57 -50.46008,57l-0.00098,0zm47.59705,-130.84299l-1.43201,0c-9.302,-11.10999 -27.20496,-21.14697 -49.74805,-21.14697c-47.24194,0 -90.54297,41.57999 -90.54297,94.98996c0,53.05505 43.30005,94.27905 90.54297,94.27905c22.54309,0 40.44604,-10.04004 49.74805,-21.50403l1.43201,0l0,13.62c0,36.211 -19.32397,55.56702 -50.45996,55.56702c-25.41003,0 -41.15808,-18.28802 -47.60706,-33.69904l-36.14001,15.05505c10.37805,25.09198 37.93701,55.92297 83.74707,55.92297c48.672,0 89.82996,-28.68402 89.82996,-98.58203l0,-169.91293l-39.37,0l0,15.41095zm67.99805,162.38504l41.51489,0l0,-278.17004l-41.51489,0l0,278.17004zm102.71594,-91.76605c-1.07495,-36.56696 28.27295,-55.20197 49.38599,-55.20197c16.474,0 30.42505,8.23999 35.06799,20.08002l-84.45398,35.12195zm128.84009,-31.54297c-7.86499,-21.15601 -31.85706,-60.22299 -80.88708,-60.22299c-48.672,0 -89.10999,38.35501 -89.10999,94.634c0,53.05499 40.08203,94.63501 93.76196,94.63501c43.31201,0 68.37012,-26.52802 78.74512,-41.93903l-32.21204,-21.51196c-10.7301,15.776 -25.41309,26.172 -46.53308,26.172c-21.11304,0 -36.14099,-9.68201 -45.80994,-28.67505l126.33191,-52.33997l-4.28687,-10.75201zm-1006.51208,-31.18604l0,40.14703l95.91199,0c-2.86304,22.58197 -10.37903,39.07001 -21.83301,50.54199c-13.953,13.98499 -35.78503,29.396 -74.07996,29.396c-59.05304,0 -105.21704,-47.67499 -105.21704,-106.82202c0,-59.14597 46.164,-106.82697 105.21802,-106.82697c31.854,0 55.10999,12.54898 72.29102,28.67999l28.27295,-28.31601c-23.97595,-22.94699 -55.83203,-40.51099 -100.56396,-40.51099c-80.88605,0 -148.88403,65.95999 -148.88403,146.97397c0,81.01501 67.99799,146.96899 148.88403,146.96899c43.66492,0 76.58801,-14.33197 102.35193,-41.224c26.48499,-26.52795 34.72009,-63.80597 34.72009,-93.914c0,-9.32697 -0.71301,-17.92297 -2.15308,-25.09399l-134.91895,0zm246.11499,122.953c-28.63696,0 -53.33301,-23.65997 -53.33301,-57.35596c0,-34.05499 24.69604,-57.35602 53.33301,-57.35602c28.62598,0 53.32202,23.30103 53.32202,57.35602c0,33.69696 -24.69604,57.35596 -53.32202,57.35596zm0,-151.98996c-52.25806,0 -94.84802,39.78799 -94.84802,94.634c0,54.48798 42.58997,94.63501 94.84802,94.63501c52.24695,0 94.83704,-40.14703 94.83704,-94.63501c0,-54.84601 -42.59009,-94.634 -94.83704,-94.634zm206.89001,151.98996c-28.625,0 -53.32397,-23.65997 -53.32397,-57.35596c0,-34.05499 24.69897,-57.35602 53.32495,-57.35602c28.62805,0 53.32397,23.30103 53.32397,57.35602c0,33.69696 -24.69592,57.35596 -53.32397,57.35596l-0.00098,0zm0,-151.98996c-52.255,0 -94.83606,39.78799 -94.83606,94.634c0,54.48798 42.58105,94.63501 94.83704,94.63501c52.24902,0 94.83997,-40.14703 94.83997,-94.63501c0,-54.84601 -42.59094,-94.634 -94.83997,-94.634l-0.00098,0z" fill="#FFF"/>
   <path id="svg_22" d="m233.446,169.35699c-7.455,6.737 -11.905,17.974 -11.905,32.89l0,-3.37201l0,492.20998l0,-3.24194c0,13.77496 3.817,24.41296 10.28101,31.26398l1.64999,1.58197l0,0.00702c5.23199,4.729 11.94099,7.23999 19.63,7.23199c7.51299,0 15.96599,-2.39899 24.88701,-7.46497l322.45197,-183.508l110.76001,-63.04102c14.06702,-8.004 21.96399,-18.33002 23.284,-28.84802l0,-0.043c-1.32001,-10.54199 -9.21698,-20.85999 -23.28296,-28.86499l-110.77002,-63.03299l-322.44202,-183.508c-8.94,-5.075 -17.39899,-7.483 -24.93201,-7.483c-7.67999,0 -14.37999,2.50299 -19.61,7.22299l-0.00198,0z" fill="#00C1FF"/>
   <path id="svg_23" fill="url(#svg_10)" d="m233.47299,720.68896l-1.651,-1.58197c-6.46399,-6.85004 -10.28099,-17.48901 -10.28099,-31.26404l0,3.242l0,-492.08801l0,3.25c0,-14.91595 4.45,-26.15295 11.905,-32.89001l275.23698,275.67502l-275.20999,275.65701"/>
   <path id="svg_24" fill="url(#svg_9)" d="m600.44104,536.95404l-91.75803,-91.92203l91.74997,-91.90701l110.76904,63.03201c14.06598,8.00601 21.96301,18.323 23.28302,28.866l0,0.04202c-1.32001,10.51797 -9.21704,20.845 -23.28302,28.84799l-110.76001,63.03998"/>
   <path id="svg_25" fill="url(#svg_8)" d="m253.10201,727.92798c-7.688,0.00702 -14.397,-2.505 -19.62801,-7.23303l0,-0.00696l275.20999,-275.65701l91.75797,91.92197l-322.45294,183.50903c-8.92102,5.06702 -17.37402,7.466 -24.88701,7.466"/>
   <path id="svg_26" fill="url(#svg_7)" d="m508.68301,445.03299l-275.23801,-275.67499c5.23199,-4.72 11.93199,-7.22299 19.61099,-7.22299c7.53299,0 15.99301,2.40698 24.93201,7.483l322.444,183.50797l-91.75,91.90701"/>
   <path id="svg_27" fill="url(#svg_6)" d="m253.11099,731.18695c-7.68799,0 -14.40599,-2.51196 -19.638,-7.23999l-0.009,0.008a0.635,0.635 0 0 1 -0.069,-0.06l-1.431,-1.39996c-0.045,-0.04401 -0.08699,-0.09503 -0.14,-0.146l1.65001,-1.65302c5.23199,4.72797 11.94,7.23999 19.63,7.23102c7.51199,0 15.965,-2.39801 24.88599,-7.46503l322.45197,-183.508l2.06604,2.07001l-2.09204,1.19l-322.42694,183.49799c-8.13,4.61603 -15.86301,7.02301 -22.84802,7.42401a41.848,41.848 0 0 0 -2.03,0.04999"/>
   <path id="svg_28" fill="url(#svg_5)" d="m231.82199,722.349c-6.46399,-6.84998 -10.28099,-17.47998 -10.28099,-31.26398l0,-3.242c0,13.77496 3.817,24.41296 10.28099,31.26398l1.65001,1.58203l-1.65001,1.65997"/>
   <path id="svg_29" fill="url(#svg_4)" d="m602.50702,539.02301l-2.06598,-2.07001l110.75995,-63.03998c14.06702,-8.00299 21.96405,-18.33002 23.28406,-28.84799c0,3.85999 -0.86005,7.71899 -2.56805,11.47498c-3.44598,7.57001 -10.35199,14.72299 -20.71497,20.62399l-108.69501,61.85999"/>
   <path id="svg_30" fill="url(#svg_3)" d="m734.48505,445.02399c-1.32001,-10.543 -9.21704,-20.85999 -23.28302,-28.866l-110.77002,-63.03201l2.06598,-2.06998l0.00903,0l108.69501,61.85999c15.508,8.83099 23.27399,20.46802 23.28302,32.108"/>
   <path id="svg_31" fill="url(#svg_2)" d="m221.541,202.24701l0,-3.40001c0,-1.226 0.03299,-2.425 0.09599,-3.589l0,-0.05299c0,-0.01601 0,-0.033 0.006,-0.05099l0,-0.131c0.66901,-11.86501 4.34801,-21.12001 10.179,-27.3l1.62401,1.633c-7.455,6.73801 -11.905,17.97501 -11.905,32.89101"/>
   <path id="svg_32" fill="url(#svg_1)" d="m600.43201,353.12601l-322.44299,-183.50999c-8.93903,-5.075 -17.39801,-7.48199 -24.93102,-7.48199c-7.68001,0 -14.38,2.50299 -19.61101,7.22299l-1.62399,-1.634a29.747,29.747 0 0 0 1.58,-1.55499c0.017,-0.01801 0.04399,-0.03601 0.06099,-0.05301c5.19,-4.68399 11.819,-7.187 19.43001,-7.23199l0.164,0c7.533,0 15.99199,2.408 24.93102,7.485l324.51794,184.681l-0.00897,0.00699l-2.06604,2.07001"/>
  </g>
 </g>
</svg>