<?xml version="1.0" encoding="utf-8"?>
<!-- Generator: Adobe Illustrator 21.1.0, SVG Export Plug-In . SVG Version: 6.00 Build 0)  -->
<svg version="1.1" id="livetype" xmlns="http://www.w3.org/2000/svg" xmlns:xlink="http://www.w3.org/1999/xlink" x="0px" y="0px"
	 width="115.1100006px" height="41px" viewBox="0 0 115.1100006 41" enable-background="new 0 0 115.1100006 41"
	 xml:space="preserve">
<g>
	<g>
		<g>
			<g>
				<g>
					<g>
						<path fill="#A6A6A6" d="M104.5790863,0H9.5351868C9.1684866,0,8.8061771,0,8.4404573,0.001953
							C8.1343069,0.003906,7.8305969,0.009766,7.5215082,0.014648C6.8559871,0.03125,6.182157,0.072266,5.5176067,0.191406
							C4.848177,0.308594,4.2261071,0.508789,3.6167269,0.818359C3.0180969,1.125,2.4712083,1.52344,1.9980769,1.99707
							c-0.47852,0.4736301-0.875,1.0224601-1.17822,1.6210901c-0.311039,0.6084001-0.508305,1.2334001-0.6250041,1.9033201
							c-0.120606,0.6621099-0.162109,1.3320398-0.179199,2.0019598C0.0063759,7.83008,0.0053999,8.1377001,0.0005085,8.4443398
							c0,0.3622999,0,0.7255802,0,1.0917902v20.928669c0,0.3691998,0,0.7304993,0,1.0937996
							c0.0048915,0.3105011,0.0058675,0.6112995,0.0151455,0.9218998c0.01709,0.669899,0.058593,1.3398018,0.179199,2.0018997
							c0.116699,0.6699028,0.313965,1.2979012,0.6250041,1.9043007c0.30322,0.5956993,0.6996999,1.1445999,1.17822,1.6142998
							c0.4731314,0.4775009,1.02002,0.875,1.61865,1.1786995c0.6093802,0.3125,1.2314501,0.5098,1.9008799,0.6308022
							c0.6645503,0.1191978,1.3383803,0.1582985,2.0039015,0.1767998c0.3090887,0.0067978,0.6127987,0.0107002,0.9189491,0.0107002
							C8.8061771,40,9.1684866,40,9.5351868,40h95.0438995c0.3594055,0,0.7246017,0,1.0839996-0.0019989
							c0.3047028,0,0.6172028-0.0039024,0.9219055-0.0107002c0.669899-0.0185013,1.3417969-0.0576019,2-0.1767998
							c0.669899-0.1210022,1.2929001-0.3183022,1.9081955-0.6308022c0.5976028-0.3036995,1.1445007-0.7011986,1.6172028-1.1786995
							c0.4765015-0.4696999,0.8730011-1.0186005,1.1816025-1.6142998c0.3065948-0.6063995,0.5058975-1.2343979,0.6190948-1.9043007
							c0.1231003-0.6620979,0.1621017-1.3320007,0.1856003-2.0018997c0.0038986-0.3106003,0.0038986-0.6113987,0.0038986-0.9218998
							c0.0078049-0.3633003,0.0078049-0.7245998,0.0078049-1.0937996V9.53613c0-0.36621,0-0.7294903-0.0078049-1.0917902
							c0-0.3066397,0-0.6142597-0.0038986-0.9208999c-0.0234985-0.66992-0.0625-1.3398499-0.1856003-2.0019598
							c-0.1131973-0.66992-0.3125-1.29492-0.6190948-1.9033201c-0.3086014-0.59863-0.705101-1.14746-1.1816025-1.6210901
							c-0.472702-0.47363-1.0195999-0.87207-1.6172028-1.1787109c-0.6152954-0.30957-1.2382965-0.509765-1.9081955-0.626953
							c-0.6582031-0.11914-1.330101-0.160156-2-0.176758c-0.3047028-0.004882-0.6172028-0.010742-0.9219055-0.012695
							C105.303688,0,104.9384918,0,104.5790863,0L104.5790863,0z"/>
						<path d="M8.4453373,39.125c-0.3046808,0-0.6020503-0.0038986-0.9042902-0.0107002
							c-0.5590801-0.0157013-1.2221704-0.0468979-1.8691401-0.1631012
							c-0.6103501-0.1103973-1.1528401-0.2901001-1.6567402-0.5478973
							c-0.5214899-0.2646027-0.9902399-0.6063995-1.3969698-1.0166016c-0.4140701-0.4062004-0.7544-0.8730011-1.0205101-1.3964996
							c-0.25928-0.5047989-0.43653-1.0467987-0.5429784-1.6571999c-0.1220616-0.672802-0.1533116-1.3554993-0.1665-1.875
							c-0.0063415-0.2108994-0.0146415-0.9130993-0.0146415-0.9130993V8.4443398c0,0,0.00879-0.6914096,0.0146415-0.8945398
							C0.9013969,7.0258799,0.9326469,6.34375,1.0537369,5.6777301c0.10694-0.61377,0.2841715-1.1552701,0.54346-1.6621003
							C1.8628085,3.49121,2.2036469,3.02197,2.6123369,2.6176801C3.025907,2.2036099,3.4966068,1.86084,4.014677,1.59521
							C4.528347,1.33447,5.0698571,1.15625,5.6679969,1.05127c0.6733398-0.120606,1.3559599-0.150879,1.8754902-0.164063
							L8.4458265,0.875h97.2123642l0.9131012,0.012695c0.5127029,0.012696,1.1952972,0.042969,1.8583984,0.162595
							c0.6025009,0.1054701,1.1474991,0.28467,1.6708984,0.54785c0.5127029,0.2627,0.9824066,0.6054699,1.3916016,1.01563
							c0.4092026,0.40625,0.7518997,0.8779299,1.0233994,1.4043002c0.2578049,0.51123,0.4336014,1.0527296,0.535202,1.6489196
							c0.1162033,0.6308603,0.152298,1.27881,0.1737976,1.8872104c0.0028992,0.2831998,0.0028992,0.5873995,0.0028992,0.8901396
							c0.0079041,0.375,0.0079041,0.7319298,0.0079041,1.0917902v20.928669c0,0.3633003,0,0.7178001-0.0079041,1.075201
							c0,0.3251991,0,0.6231003-0.0038986,0.9296989c-0.0205002,0.5889015-0.0565948,1.2364006-0.1708984,1.8535004
							c-0.1035004,0.6133003-0.2792969,1.1553001-0.5400009,1.6699982
							c-0.2695007,0.5195007-0.6122971,0.9892006-1.0156021,1.3857002c-0.4130936,0.4180031-0.881897,0.7588005-1.3993988,1.0225029
							c-0.5186005,0.2635994-1.0478973,0.4384003-1.6679993,0.5497971
							c-0.6405945,0.1162033-1.3036957,0.1473999-1.8692017,0.1631012
							c-0.2929001,0.0068016-0.5995941,0.0107002-0.8973999,0.0107002l-1.0839996,0.0019989L8.4453373,39.125z"/>
					</g>
				</g>
			</g>
		</g>
		<g id="XMLID_418_">
			<g id="XMLID_420_">
				<g id="XMLID_421_">
					<path id="XMLID_423_" fill="#FFFFFF" d="M24.7693844,20.3006763c-0.0250092-2.7508278,2.2523365-4.0894947,2.3565598-4.1520615
						c-1.289587-1.880518-3.2889233-2.137701-3.9911613-2.1576748c-1.679245-0.1762638-3.3071899,1.0048323-4.1629028,1.0048323
						c-0.8722649,0-2.1897697-0.9873343-3.6085014-0.9581413c-1.8263168,0.0283384-3.5356073,1.0857515-4.4729214,2.7278662
						c-1.9339523,3.3484154-0.4914055,8.2694664,1.3612013,10.976078c0.9269009,1.3253498,2.0101767,2.8057976,3.4276285,2.7533016
						c1.3870659-0.0575314,1.9051018-0.8844776,3.5793953-0.8844776c1.6587601,0,2.1447868,0.8844776,3.5910053,0.8511028
						c1.4883842-0.0241566,2.4261246-1.3312416,3.3205109-2.6691399c1.0711479-1.5195389,1.5012665-3.0158634,1.5184231-3.092514
						C27.6539669,24.6881542,24.7977238,23.598732,24.7693844,20.3006763z"/>
					<path id="XMLID_422_" fill="#FFFFFF" d="M22.0377636,12.2108879c0.7456856-0.933217,1.2562103-2.2023182,1.1145172-3.4906235
						c-1.0798626,0.0478859-2.4303093,0.7464542-3.2075768,1.6596127c-0.6877289,0.8039846-1.302475,2.1223364-1.1437092,3.3613911
						C20.0138435,13.8313208,21.2592144,13.1294231,22.0377636,12.2108879z"/>
				</g>
			</g>
			<g>
				<path fill="#FFFFFF" d="M42.3027763,27.1396484h-4.7333984l-1.1367188,3.3564453h-2.0048828l4.4833984-12.4179688h2.0830078
					l4.4833984,12.4179688h-2.0390739L42.3027763,27.1396484z M38.0596123,25.5908203h3.7519531l-1.8496094-5.4472656h-0.0517578
					L38.0596123,25.5908203z"/>
				<path fill="#FFFFFF" d="M55.1601982,25.9697266c0,2.8134766-1.5058594,4.6210938-3.7783203,4.6210938
					c-1.2900391,0-2.3144531-0.5771484-2.8486328-1.5839844h-0.0429688v4.484375h-1.8583984V21.4423828h1.7988281v1.5058594
					h0.0341797c0.5166016-0.9716797,1.6181641-1.6005859,2.8828125-1.6005859
					C53.6455498,21.3476562,55.1601982,23.1640625,55.1601982,25.9697266z M53.250042,25.9697266
					c0-1.8330078-0.9472656-3.0380859-2.3925781-3.0380859c-1.4199219,0-2.375,1.2304688-2.375,3.0380859
					c0,1.8242188,0.9550781,3.0458984,2.375,3.0458984C52.3027763,29.015625,53.250042,27.8193359,53.250042,25.9697266z"/>
				<path fill="#FFFFFF" d="M65.1250381,25.9697266c0,2.8134766-1.5058556,4.6210938-3.7783165,4.6210938
					c-1.2900391,0-2.3144531-0.5771484-2.8486328-1.5839844h-0.0429688v4.484375h-1.8583984V21.4423828h1.7988281v1.5058594
					h0.0341797c0.5166016-0.9716797,1.6181641-1.6005859,2.8828125-1.6005859
					C63.6103935,21.3476562,65.1250381,23.1640625,65.1250381,25.9697266z M63.2148857,25.9697266
					c0-1.8330078-0.9472656-3.0380859-2.3925781-3.0380859c-1.4199219,0-2.375,1.2304688-2.375,3.0380859
					c0,1.8242188,0.9550781,3.0458984,2.375,3.0458984C62.2676201,29.015625,63.2148857,27.8193359,63.2148857,25.9697266z"/>
				<path fill="#FFFFFF" d="M66.629921,18.078125h1.859375v12.4179688h-1.859375V18.078125z"/>
				<path fill="#FFFFFF" d="M78.1650772,27.8369141c-0.25,1.6435547-1.8505859,2.7714844-3.8984375,2.7714844
					c-2.6337891,0-4.2685547-1.7646484-4.2685547-4.5957031c0-2.8398438,1.6435547-4.6816406,4.1904221-4.6816406
					c2.5048904,0,4.0800858,1.7207031,4.0800858,4.4658203v0.6367188h-6.3945312v0.1123047
					c0,1.5488281,0.9726562,2.5644531,2.4355469,2.5644531c1.0322266,0,1.8417969-0.4902344,2.0908203-1.2734375H78.1650772z
					 M71.8828506,25.1347656h4.5263672c-0.0429688-1.3857422-0.9296875-2.2978516-2.2207108-2.2978516
					C72.9062881,22.8369141,71.9775772,23.7666016,71.8828506,25.1347656z"/>
				<path fill="#FFFFFF" d="M86.591835,30.4960938V19.7382812h-3.8037109V18.078125h9.5263672v1.6601562h-3.7949219v10.7578125
					H86.591835z"/>
				<path fill="#FFFFFF" d="M97.4004288,30.4960938L92.9678116,18.078125h2.0917969l3.3818359,10.2490234h0.0517578
					l3.390625-10.2490234h2.0566406l-4.4316406,12.4179688H97.4004288z"/>
			</g>
		</g>
	</g>
	<g>
		<g id="XMLID_1_">
			<g>
				<path fill="#FFFFFF" d="M38.0083427,8.7348633c1.1660156,0,1.9677734,0.8061523,1.9677734,1.9887695
					c0,1.1660156-0.8261719,1.9682617-1.9970703,1.9682617h-1.3808594v2.0097656h-0.9267578V8.7348633H38.0083427z
					 M36.5981865,11.8774414h1.1660156c0.7978516,0,1.265625-0.4135742,1.265625-1.1538086
					c0-0.7568359-0.4511719-1.1704102-1.265625-1.1704102h-1.1660156V11.8774414z"/>
				<path fill="#FFFFFF" d="M41.1899834,10.1987305h0.8554688v0.6904297h0.0664062
					c0.1279297-0.4423828,0.6279297-0.7651367,1.2158203-0.7651367c0.1318359,0,0.3017578,0.012207,0.3964844,0.0371094v0.8769531
					c-0.0742188-0.0249023-0.3388672-0.0537109-0.4960938-0.0537109c-0.6738281,0-1.1494141,0.4257812-1.1494141,1.0585938
					v2.6586914h-0.8886719V10.1987305z"/>
				<path fill="#FFFFFF" d="M48.3979912,13.4858398c-0.2021484,0.8066406-0.921875,1.3027344-1.9511719,1.3027344
					c-1.2900391,0-2.0800781-0.8847656-2.0800781-2.3242188c0-1.4389648,0.8066406-2.3525391,2.0761719-2.3525391
					c1.2529297,0,2.0087891,0.855957,2.0087891,2.2700195v0.3100586h-3.1796875v0.0498047
					c0.0292969,0.7895508,0.4882812,1.2900391,1.1992188,1.2900391c0.5380859,0,0.90625-0.1943359,1.0712891-0.5458984H48.3979912z
					 M45.2720146,12.034668h2.2744141c-0.0205078-0.7070312-0.4501953-1.1665039-1.1083984-1.1665039
					C45.7808037,10.8681641,45.3218193,11.331543,45.2720146,12.034668z"/>
				<path fill="#FFFFFF" d="M49.6606865,12.7333984v-0.8725586h2.7128906v0.8725586H49.6606865z"/>
				<path fill="#FFFFFF" d="M53.5786552,12.4482422c0-1.4516602,0.8105469-2.3364258,2.125-2.3364258
					c1.3115234,0,2.1220703,0.8847656,2.1220703,2.3364258c0,1.4594727-0.8066406,2.340332-2.1220703,2.340332
					C54.3852959,14.7885742,53.5786552,13.9077148,53.5786552,12.4482422z M56.9116631,12.4482422
					c0-0.9760742-0.4384766-1.546875-1.2080078-1.546875c-0.7724609,0-1.2070312,0.5708008-1.2070312,1.546875
					c0,0.9838867,0.4345703,1.550293,1.2070312,1.550293C56.4731865,13.9985352,56.9116631,13.4282227,56.9116631,12.4482422z"/>
				<path fill="#FFFFFF" d="M59.0181084,10.1987305h0.8554688v0.6904297h0.0664062
					c0.1279297-0.4423828,0.6279297-0.7651367,1.2158203-0.7651367c0.1318359,0,0.3017578,0.012207,0.3964844,0.0371094v0.8769531
					c-0.0742188-0.0249023-0.3388672-0.0537109-0.4960938-0.0537109c-0.6738281,0-1.1494141,0.4257812-1.1494141,1.0585938
					v2.6586914h-0.8886719V10.1987305z"/>
				<path fill="#FFFFFF" d="M62.196331,12.4482422c0-1.4228516,0.7314453-2.3242188,1.8691368-2.3242188
					c0.6162109,0,1.1367188,0.293457,1.3808594,0.7900391h0.0664062V8.440918h0.8886719v6.2607422h-0.8515625v-0.7114258h-0.0703125
					c-0.2685547,0.4921875-0.7939453,0.7856445-1.4140625,0.7856445
					C62.9199638,14.7758789,62.196331,13.8745117,62.196331,12.4482422z M63.1142998,12.4482422
					c0,0.9550781,0.4501953,1.5297852,1.2031212,1.5297852c0.7490234,0,1.2119141-0.5830078,1.2119141-1.5258789
					c0-0.9384766-0.4677734-1.5297852-1.2119141-1.5297852C63.5693779,10.9223633,63.1142998,11.5009766,63.1142998,12.4482422z"/>
				<path fill="#FFFFFF" d="M71.6670303,13.4858398c-0.2021484,0.8066406-0.921875,1.3027344-1.9511719,1.3027344
					c-1.2900391,0-2.0800781-0.8847656-2.0800781-2.3242188c0-1.4389648,0.8066406-2.3525391,2.0761719-2.3525391
					c1.2529297,0,2.0087891,0.855957,2.0087891,2.2700195v0.3100586h-3.1796875v0.0498047
					c0.0292969,0.7895508,0.4882812,1.2900391,1.1992188,1.2900391c0.5380859,0,0.90625-0.1943359,1.0712891-0.5458984H71.6670303z
					 M68.5410538,12.034668h2.2744141c-0.0205078-0.7070312-0.4501953-1.1665039-1.1083984-1.1665039
					C69.0498428,10.8681641,68.5908585,11.331543,68.5410538,12.034668z"/>
				<path fill="#FFFFFF" d="M72.9141006,10.1987305h0.8554688v0.6904297h0.0664062
					c0.1279297-0.4423828,0.6279297-0.7651367,1.2158203-0.7651367c0.1318359,0,0.3017578,0.012207,0.3964844,0.0371094v0.8769531
					c-0.0742188-0.0249023-0.3388672-0.0537109-0.4960938-0.0537109c-0.6738281,0-1.1494141,0.4257812-1.1494141,1.0585938
					v2.6586914h-0.8886719V10.1987305z"/>
				<path fill="#FFFFFF" d="M78.6494522,12.4482422c0-1.4516602,0.8105469-2.3364258,2.125-2.3364258
					c1.3115234,0,2.1220703,0.8847656,2.1220703,2.3364258c0,1.4594727-0.8066406,2.340332-2.1220703,2.340332
					C79.4560928,14.7885742,78.6494522,13.9077148,78.6494522,12.4482422z M81.98246,12.4482422
					c0-0.9760742-0.4384766-1.546875-1.2080078-1.546875c-0.7724609,0-1.2070312,0.5708008-1.2070312,1.546875
					c0,0.9838867,0.4345703,1.550293,1.2070312,1.550293C81.5439835,13.9985352,81.98246,13.4282227,81.98246,12.4482422z"/>
				<path fill="#FFFFFF" d="M84.0898819,10.1987305h0.8554688v0.715332h0.0664062
					c0.21875-0.5004883,0.6660156-0.8022461,1.34375-0.8022461c1.0048828,0,1.5585938,0.6035156,1.5585938,1.6748047v2.9150391
					h-0.8886719v-2.6918945c0-0.7236328-0.3144531-1.0834961-0.9716797-1.0834961s-1.0751953,0.4384766-1.0751953,1.1411133
					v2.6342773h-0.8886719V10.1987305z"/>
			</g>
		</g>
	</g>
</g>
<g>
</g>
<g>
</g>
<g>
</g>
<g>
</g>
<g>
</g>
<g>
</g>
</svg>
