<?xml version='1.0' encoding='utf-8'?>
<svg xmlns="http://www.w3.org/2000/svg" width="100%" height="100%" version="1.1" style="shape-rendering:geometricPrecision; text-rendering:geometricPrecision; image-rendering:optimizeQuality; fill-rule:evenodd; clip-rule:evenodd" viewBox="0 0 9144 9144"> <defs> <style type="text/css">  .fil0 {fill:white} .fil1 {fill:#0177DB;fill-rule:nonzero}  </style> </defs> <g id="Camada_x0020_1"> <metadata id="CorelCorpID_0Corel-Layer"/> <polygon class="fil0" points="0,0 9144,0 9144,9144 0,9144 "/> <path class="fil1" d="M6648 4741l0 1863 0 0c0,4 -1,7 -1,11 -6,46 -48,79 -95,73l-1850 -245c-45,-2 -81,-39 -81,-84l0 -1620 1 0c0,-47 38,-85 84,-85l1850 3c2,0 5,0 7,0 47,0 85,38 85,84zm-2227 -3l0 1575c0,4 0,7 0,11 -6,46 -48,79 -95,73l-1744 -217c-43,-4 -77,-40 -77,-84l0 -1355 0 0c0,-46 38,-84 85,-84l1739 -4c2,0 5,0 8,0 46,0 84,38 84,85zm0 -1911l0 1545c0,46 -38,84 -84,84l-1756 0c-47,0 -85,-38 -85,-84l0 -1324 0 0c0,-42 32,-79 74,-84l1748 -220c6,-1 12,-2 19,-2 46,0 84,38 84,85zm2142 1629l-1857 0c-47,0 -85,-38 -85,-84l0 -1589 1 0c0,-42 31,-78 73,-84l1850 -242c6,-1 12,-2 18,-2 47,0 85,38 85,85l0 1832c0,46 -38,84 -85,84z"/> </g> </svg>